<svg width="133" height="50" fill="none" xmlns="http://www.w3.org/2000/svg"><path d="M126.912 45.3902v-1.4374c-.872-.5618-1.916-.8426-3.096-.8426-.889 0-1.607.1652-2.137.4956-.53.3305-.787.7931-.787 1.3879 0 .6113.239 1.074.718 1.4044.479.3139 1.129.4792 1.933.4792 1.471-.0166 2.599-.5122 3.369-1.4871zm5.216 1.0905c.359 0 .65-.0495.872-.1652v2.9575c-.53.3966-1.3.6113-2.257.6113-1.694 0-2.805-.6113-3.369-1.8339C126.057 49.3556 124.347 50 122.243 50c-1.625 0-2.941-.4461-3.968-1.3218-1.009-.8757-1.522-2.0488-1.522-3.4862 0-1.5366.582-2.7097 1.728-3.5193 1.145-.8096 2.531-1.2061 4.138-1.2061 1.693 0 3.113.2974 4.293.8922v-.4296c0-1.801-1.317-2.7097-3.934-2.7097-1.607 0-3.112.3966-4.497 1.2061V36.022c1.505-.76 3.352-1.1565 5.506-1.1565 2.138 0 3.848.4956 5.131 1.5035 1.317.9913 1.967 2.3792 1.967 4.1471v4.8576c0 .7435.342 1.107 1.043 1.107zm-28.355-6.0141V49.62h-4.2068V35.262h4.2068v1.7349c1.334-1.4045 2.993-2.0984 4.977-2.0984 1.71 0 3.044.5287 3.984 1.5696.958 1.0409 1.437 2.4949 1.437 4.362v8.8064h-4.207v-7.9803c0-1.0409-.257-1.801-.787-2.2966-.53-.4957-1.214-.7435-2.035-.7435-.633 0-1.265.1817-1.898.5287-.633.3304-1.129.7765-1.471 1.3218zM95.2394 49.62h-4.207V35.262h4.207V49.62zM90.622 31.4453c0-.6939.2394-1.2722.7353-1.7348.4789-.4627 1.0774-.7105 1.7786-.7105s1.2826.2313 1.7786.7105c.4788.4626.7354 1.0574.7354 1.7348s-.2395 1.2392-.7354 1.7184c-.4789.4626-1.0774.7104-1.7786.7104s-1.2826-.2313-1.7786-.7104c-.4959-.4627-.7353-1.041-.7353-1.7184zM79.0954 45.1589v-6.5098H76.171v-3.4036h2.9244v-3.9489h4.207v3.9489h4.2242v3.4036h-4.2242v5.7002c0 .7105.1539 1.2227.4789 1.5366.3249.3139.838.4792 1.5562.4792.7354 0 1.4537-.1653 2.172-.5122v3.3705c-.8722.5122-2.0523.7766-3.5401.7766-3.2493-.0165-4.874-1.6192-4.874-4.8411zm-10.1071.2313v-1.4374c-.8722-.5618-1.8983-.8426-3.0954-.8426-.8893 0-1.6076.1652-2.1377.4956-.5302.3305-.7867.7931-.7867 1.3879 0 .6113.2394 1.074.7183 1.4044.4788.3139 1.1287.4792 1.9325.4792 1.4878-.0166 2.5994-.5122 3.369-1.4871zm5.216 1.0905c.3592 0 .6499-.0495.8722-.1652v2.9575c-.5302.3966-1.2826.6113-2.2574.6113-1.6931 0-2.8047-.6113-3.3691-1.8339C68.1332 49.3556 66.423 50 64.3195 50c-1.6246 0-2.9415-.4461-3.9676-1.3218-1.009-.8757-1.522-2.0488-1.522-3.4862 0-1.5366.5814-2.7097 1.7273-3.5193 1.1458-.8096 2.531-1.2061 4.1386-1.2061 1.693 0 3.1125.2974 4.2925.8922v-.4296c0-1.801-1.3168-2.7097-3.9334-2.7097-1.6076 0-3.1125.3966-4.4977 1.2061V36.022c1.5049-.76 3.3519-1.1565 5.5067-1.1565 2.1377 0 3.8479.4956 5.1305 1.5035 1.3168.9913 1.9667 2.3792 1.9667 4.1471v4.8576c0 .7435.3591 1.107 1.0432 1.107zM36.6661 49.62H32.459V35.262h4.2071v1.7514c1.1116-1.421 2.6165-2.1314 4.5319-2.1314 1.0774 0 2.0351.2313 2.8731.6939.838.4627 1.4194 1.0409 1.7444 1.7514.4959-.727 1.2142-1.3218 2.1377-1.7679.9406-.4461 1.9325-.6774 2.9757-.6774 1.6247 0 2.9244.4957 3.865 1.5035.9577.9914 1.4365 2.4123 1.4365 4.2628v8.9882h-4.207v-8.0629c0-1.9827-.8209-2.9575-2.4797-2.9575-.6328 0-1.2485.1817-1.8128.5452-.5815.3635-1.009.8426-1.2827 1.4044v9.0708h-4.207v-8.0629c0-1.9827-.8209-2.9575-2.4797-2.9575-.5986 0-1.1971.1817-1.7957.5452-.5986.3635-1.0432.8096-1.3339 1.3548V49.62h.0342zm-19.2566-7.2038c0 1.1566.3934 2.1149 1.163 2.8749.7695.76 1.7614 1.1566 2.9415 1.1566 1.1971 0 2.1719-.38 2.9414-1.1566.7696-.7931 1.163-1.7514 1.163-2.8749 0-1.1566-.3934-2.0983-1.163-2.8418-.7695-.7601-1.7614-1.1566-2.9414-1.1566-1.1972 0-2.172.38-2.9415 1.1566-.7696.7435-1.163 1.7018-1.163 2.8418zm-4.1386 0c0-2.1314.7696-3.9158 2.3259-5.3533 1.522-1.4539 3.5058-2.1809 5.9343-2.1809 2.4284 0 4.3951.727 5.9342 2.1809 1.5563 1.454 2.3259 3.2384 2.3259 5.3533 0 2.1479-.7696 3.9489-2.3259 5.4194C25.9091 49.273 23.9424 50 21.5311 50c-2.4114 0-4.3781-.727-5.9343-2.1644-1.5563-1.4705-2.3259-3.2715-2.3259-5.4194zM2.92439 45.1589v-6.5098H0v-3.4036h2.92439v-3.9489h4.20702v3.9489h4.22409v3.4036H7.11431v5.7002c0 .7105.15392 1.2227.47885 1.5366.32493.3139.83798.4792 1.55626.4792.73537 0 1.45368-.1653 2.17188-.5122v3.3705c-.8722.5122-2.05217.7766-3.54002.7766-3.24933-.0165-4.85689-1.6192-4.85689-4.8411z" fill="#599921"/><path d="M66.4915 26.4106c-5.5173 0-9.9852-4.6623-9.9852-10.4194 0-5.7572 4.4679-10.41946 9.9852-10.41946 5.5173 0 9.9853 4.66226 9.9853 10.41946 0 5.7571-4.468 10.4194-9.9853 10.4194zm0-22.4106C60.145 4 55 9.36865 55 16.0088 55 22.6313 60.145 28 66.4915 28 72.8381 28 78 22.6313 78 16.0088 77.9831 9.36865 72.8381 4 66.4915 4zm-.8969 6.3576c-1.9971.3885-3.6218 1.9073-4.2311 3.9382-.1015.3355-.3893.5475-.7108.5475-.0677 0-.1523-.0177-.22-.0354-.3893-.1236-.6093-.5651-.4908-.9713.7616-2.5783 2.8263-4.50327 5.3649-4.99775.4062-.0883.7955.19426.8632.6181.1015.40618-.1693.81235-.5754.90065zm.8969-3.28475c-4.7218 0-8.5636 3.99115-8.5636 8.93595 0 4.9272 3.8249 8.936 8.5636 8.936 4.7388 0 8.5637-3.9912 8.5637-8.936-.0169-4.9448-3.8418-8.93595-8.5637-8.93595z" fill="#DB2526"/><path d="M68.619 2.4639c.7882-.74449.8867-1.737139.8867-1.737139s-1.4614.053178-2.4466.815389c-.0821.07091-.1478.12408-.2134.19499C66.8292.779939 65.959 0 65.959 0s-.7882.673584-.9196 1.55988C64.1034.762213 62.642.655858 62.642.655858s.0657 1.010372.8211 1.808042C62.1658 2.28664 61 2.72979 61 2.72979s.9195.86856 2.2824 1.11673c1.1659.21271 2.2989-.10636 2.578-.19499.312.10636 1.4614.4786 2.693.30134C69.9984 3.74016 71 2.85387 71 2.85387s-1.1002-.46088-2.381-.38997z" fill="#599921"/></svg>